<!-- Sync My Bookmarks Extension Logo - 48px -->
<svg width="48" height="48" viewBox="0 0 48 48" fill="none" xmlns="http://www.w3.org/2000/svg">
  <!-- Background Circle -->
  <circle cx="24" cy="24" r="24" fill="#3B82F6"/>
  
  <!-- Inner Background -->
  <circle cx="24" cy="24" r="21" fill="#2563EB"/>
  
  <!-- Main Bookmark Icon -->
  <path d="M14 9C14 8.44772 14.4477 8 15 8H33C33.5523 8 34 8.44772 34 9V36L28 31L24 34L20 31L14 36V9Z" fill="white"/>
  
  <!-- Bookmark Fold -->
  <path d="M28 31L24 34L20 31L14 36L14 33L20 28L24 31L28 28L34 33L34 36L28 31Z" fill="#EBF4FF" fill-opacity="0.8"/>
  
  <!-- Inner Accent Lines -->
  <rect x="17" y="13" width="14" height="1.5" rx="0.75" fill="#3B82F6"/>
  <rect x="17" y="17" width="11" height="1" rx="0.5" fill="#60A5FA"/>
  <rect x="17" y="20" width="12" height="1" rx="0.5" fill="#60A5FA"/>
  <rect x="17" y="23" width="9" height="1" rx="0.5" fill="#60A5FA"/>
  
  <!-- Subtle Shine Effect -->
  <defs>
    <linearGradient id="shine" x1="0%" y1="0%" x2="100%" y2="100%">
      <stop offset="0%" style="stop-color:white;stop-opacity:0.2" />
      <stop offset="100%" style="stop-color:white;stop-opacity:0" />
    </linearGradient>
  </defs>
  <circle cx="24" cy="24" r="24" fill="url(#shine)"/>
</svg>
