<!-- Sync My Bookmarks Extension Logo - 16px -->
<svg width="16" height="16" viewBox="0 0 16 16" fill="none" xmlns="http://www.w3.org/2000/svg">
  <!-- Background Circle -->
  <circle cx="8" cy="8" r="8" fill="#3B82F6"/>
  
  <!-- Main Bookmark Icon -->
  <path d="M5 3C5 2.72386 5.22386 2.5 5.5 2.5H10.5C10.7761 2.5 11 2.72386 11 3V12.5L9 11L8 11.5L7 11L5 12.5V3Z" fill="white"/>
  
  <!-- Bookmark Fold -->
  <path d="M9 11L8 11.5L7 11L5 12.5L5 11.5L7 10L8 10.5L9 10L11 11.5L11 12.5L9 11Z" fill="#EBF4FF" fill-opacity="0.8"/>
  
  <!-- Inner Accent Lines -->
  <rect x="6" y="4.5" width="4" height="0.5" rx="0.25" fill="#3B82F6"/>
  <rect x="6" y="6" width="3" height="0.5" rx="0.25" fill="#60A5FA"/>
  <rect x="6" y="7.5" width="3.5" height="0.5" rx="0.25" fill="#60A5FA"/>
</svg>
